<svg width="16" height="16" viewBox="0 0 16 16" fill="none" xmlns="http://www.w3.org/2000/svg">
<g clip-path="url(#clip0_61_141)">
<path fill-rule="evenodd" clip-rule="evenodd" d="M15.6333 3.9655C15.744 3.6015 15.6333 3.3335 15.1033 3.3335H13.3533C12.908 3.3335 12.7027 3.56483 12.5913 3.82016C12.5913 3.82016 11.7013 5.95083 10.4407 7.33483C10.0327 7.73616 9.84733 7.8635 9.62467 7.8635C9.51333 7.8635 9.346 7.73616 9.346 7.3715V3.9655C9.346 3.52816 9.22333 3.3335 8.85267 3.3335H6.10067C5.82267 3.3335 5.65533 3.53616 5.65533 3.72883C5.65533 4.14283 6.286 4.23883 6.35067 5.40416V7.93616C6.35067 8.4915 6.24867 8.59216 6.026 8.59216C5.43267 8.59216 3.98933 6.4515 3.13267 4.00216C2.96667 3.5255 2.79867 3.3335 2.35133 3.3335H0.6C0.1 3.3335 0 3.56483 0 3.82016C0 4.27483 0.593333 6.5335 2.76333 9.52083C4.21 11.5608 6.24667 12.6668 8.102 12.6668C9.21467 12.6668 9.352 12.4215 9.352 11.9982V10.4562C9.352 9.96483 9.45733 9.86683 9.81 9.86683C10.07 9.86683 10.5147 9.99483 11.5533 10.9782C12.74 12.1442 12.9353 12.6668 13.6033 12.6668H15.3533C15.8533 12.6668 16.104 12.4215 15.96 11.9362C15.8013 11.4535 15.2347 10.7528 14.4833 9.9215C14.0753 9.44816 13.4633 8.93816 13.2773 8.68283C13.018 8.3555 13.092 8.2095 13.2773 7.91816C13.2773 7.91816 15.4107 4.9675 15.6327 3.9655H15.6333Z" fill="black" fill-opacity="0.4"/>
</g>
<defs>
<clipPath id="clip0_61_141">
<rect width="16" height="16" fill="white"/>
</clipPath>
</defs>
</svg>
