<svg width="10" height="16" viewBox="0 0 10 16" fill="none" xmlns="http://www.w3.org/2000/svg">
<path d="M4.98804 8.2729C2.54199 8.2729 0.508956 6.39608 0.508956 4.17525C0.508956 1.87762 2.54199 0 4.98891 0C7.51895 0 9.468 1.87682 9.468 4.17525C9.46364 5.26571 8.99086 6.30995 8.15357 7.07846C7.31627 7.84698 6.18298 8.27689 5.00276 8.2737L4.98804 8.2729ZM4.98804 2.41363C3.95248 2.41363 3.16455 3.21764 3.16455 4.17605C3.16455 5.13286 3.95248 5.86087 4.98891 5.86087C6.06691 5.86087 6.81328 5.13286 6.81328 4.17605C6.81414 3.21684 6.06691 2.41363 4.98804 2.41363ZM6.77171 11.6825L9.30262 13.9426C9.80049 14.4394 9.80049 15.1674 9.30262 15.6274C8.76406 16.1242 7.9337 16.1242 7.51895 15.6274L4.98891 13.329L2.54199 15.6274C2.29349 15.857 1.961 15.9714 1.58695 15.9714C1.29689 15.9714 0.965264 15.8562 0.674335 15.6274C0.176467 15.1674 0.176467 14.4394 0.674335 13.9418L3.24594 11.6817C2.31725 11.4277 1.42636 11.0678 0.59381 10.6105C-0.0287424 10.3041 -0.15256 9.53852 0.179064 8.96331C0.593811 8.3889 1.34018 8.2361 2.00429 8.61931C2.90357 9.12637 3.9367 9.39463 4.99021 9.39463C6.04372 9.39463 7.07685 9.12637 7.97612 8.61931C8.64024 8.2361 9.4273 8.3889 9.80049 8.96331C10.1745 9.53852 10.0074 10.3033 9.42644 10.6105C8.63937 11.0705 7.72676 11.4153 6.77258 11.6833L6.77171 11.6825Z" fill="black" fill-opacity="0.4"/>
</svg>
